<svg version="1.1" id="Layer_1" xmlns="http://www.w3.org/2000/svg" xmlns:xlink="http://www.w3.org/1999/xlink" x="0px" y="0px"
	 width="100%" viewBox="0 0 612 407" enable-background="new 0 0 612 407" xml:space="preserve">
<path fill="#000000" opacity="1.000000" stroke="none" 
	d="
M0.999999,198.000000 
	C1.000000,132.377106 1.000000,66.754227 1.000000,1.000000 
	C153.021408,1.000000 305.042847,1.000000 457.616821,1.368444 
	C457.516815,2.159369 456.915833,2.722228 456.204132,2.983479 
	C443.451965,7.664707 433.763397,15.739057 427.425140,27.934298 
	C418.139923,45.799744 419.295410,63.473831 429.640045,80.021538 
	C437.301788,92.277527 449.250946,99.556282 464.006622,101.773300 
	C464.006622,103.234055 464.006622,104.553879 463.539978,105.926620 
	C446.361786,106.020149 429.650177,106.060745 412.645416,105.915497 
	C411.383881,105.134506 410.335175,104.638618 409.459015,103.929543 
	C392.402313,90.126175 372.668915,81.614616 351.975616,75.119560 
	C349.293427,74.277695 346.118958,75.004158 343.121460,75.004158 
	C343.121460,77.350052 343.121460,78.944717 343.127899,80.538620 
	C338.141632,81.902596 324.181335,77.451324 321.341431,73.589142 
	C317.703186,68.641266 305.703918,66.850128 299.490997,71.071266 
	C302.771942,71.629898 305.291229,72.058846 307.810516,72.487793 
	C307.995728,73.017242 308.180939,73.546700 308.366150,74.076149 
	C304.592773,76.162224 300.819397,78.248291 296.859467,80.437492 
	C297.952667,85.092842 298.749207,85.237373 304.945251,81.381966 
	C309.082794,83.954895 312.812469,87.179283 317.142120,88.750809 
	C323.370972,91.011703 325.540680,93.139427 324.956116,99.871178 
	C328.822235,98.559914 330.104523,101.857750 332.566956,103.397514 
	C337.346283,106.386009 334.232361,106.654671 331.981171,107.637939 
	C329.880951,107.186127 327.943085,107.052757 325.923889,106.704742 
	C325.663239,106.222099 325.416901,106.050194 324.970947,105.698387 
	C324.262695,105.363602 323.687042,105.304810 322.715973,105.176636 
	C321.521332,105.147995 320.722076,105.188744 319.567505,105.155396 
	C318.742493,104.317551 317.692566,103.265976 317.903870,102.840050 
	C318.804352,101.024879 320.077881,99.394775 321.500458,97.271400 
	C314.950378,97.992271 309.223724,98.622520 302.974579,99.310272 
	C304.428772,100.212982 305.370148,100.797356 306.225922,101.328598 
	C303.506348,104.231377 305.227142,106.906807 307.493683,107.623825 
	C309.855957,108.371117 312.820251,107.215401 315.521332,106.891708 
	C315.445038,106.445610 315.368713,105.999519 315.292419,105.553421 
	C316.049866,106.109970 316.807312,106.666519 317.597321,107.233803 
	C317.629883,107.244537 317.696564,107.228752 317.671814,107.454285 
	C317.647095,107.679810 317.939758,108.026558 317.769165,108.345566 
	C312.226746,110.628372 306.854950,112.592171 301.223602,114.650856 
	C301.223602,113.336311 301.223602,112.185516 301.223602,110.117226 
	C296.472168,112.767624 290.119904,110.983376 288.319153,117.864647 
	C288.169403,118.436821 286.640625,119.016968 285.782654,118.975204 
	C280.142883,118.700745 278.822296,125.373909 273.934570,126.258507 
	C273.827789,126.277840 273.818207,127.038322 273.825226,127.452026 
	C273.938324,134.110199 268.604492,135.608322 264.032898,137.891586 
	C261.898743,138.957474 259.669983,140.005508 257.857452,141.511093 
	C252.676559,145.814621 255.561844,151.045944 256.358276,156.097183 
	C256.587708,157.552200 256.198914,159.796494 255.210526,160.623077 
	C252.141647,163.189575 249.402756,161.453430 249.060608,156.612091 
	C248.770554,152.508118 248.026489,149.858841 242.839005,149.769180 
	C238.788406,149.699158 234.767395,147.917572 230.547668,146.849579 
	C230.634262,148.288025 230.698090,149.348068 230.780045,150.709396 
	C224.581833,151.361389 217.845932,148.896637 213.004715,154.937744 
	C208.804535,160.178940 206.614700,165.943665 206.152023,171.973648 
	C213.035309,171.973648 219.373215,172.226028 225.682739,171.910629 
	C233.824738,171.503616 241.933029,170.387085 250.075653,170.035660 
	C262.854553,169.484146 275.651581,169.364258 288.437531,168.956024 
	C291.974274,168.843094 295.499146,168.356354 299.209869,168.437988 
	C311.918488,168.842819 324.446655,168.850784 337.411316,168.908905 
	C349.245850,169.173920 360.654541,169.155182 372.038971,169.671661 
	C382.689789,170.154877 393.321747,171.125229 403.949402,172.029144 
	C414.465820,172.923569 424.964111,174.029617 435.476013,174.980148 
	C437.750031,175.185760 439.555817,174.944168 440.060028,171.841629 
	C440.575714,168.668457 442.012238,165.644928 443.314301,161.752762 
	C442.359650,161.150742 440.547546,160.127808 438.882446,158.904694 
	C438.111023,158.338074 437.207336,157.444092 437.079834,156.591415 
	C436.302429,151.392410 436.025177,146.101288 434.955963,140.971191 
	C434.482391,138.699066 432.650391,136.659286 431.252441,134.640457 
	C427.556427,129.302841 423.760620,124.034264 420.004547,118.738213 
	C420.365356,118.330376 420.726135,117.922546 421.086945,117.514709 
	C423.666382,118.991585 426.245789,120.468468 429.017822,122.356506 
	C454.110138,122.791359 479.009888,122.815041 504.362610,122.876228 
	C507.747559,123.276596 510.675201,123.679329 513.612122,123.996063 
	C539.436096,126.781151 560.182556,138.665253 576.293518,158.897934 
	C587.575745,173.066513 594.440552,189.046997 596.171143,207.602783 
	C596.164734,226.986343 596.175659,245.909576 596.088623,265.268829 
	C594.471313,271.901581 592.649902,278.042572 591.494202,284.306396 
	C588.945251,298.121979 580.707764,308.813263 572.113647,319.076447 
	C567.884888,324.126465 561.942322,327.785736 556.611267,331.859772 
	C542.856689,342.371277 527.097229,347.591583 509.525635,349.109192 
	C486.365234,349.051575 463.676392,349.043610 440.987915,348.951996 
	C439.329803,348.945282 437.674164,348.332428 436.326599,347.863586 
	C448.895538,334.049530 457.907928,318.456787 464.858002,300.692078 
	C440.010895,298.512665 415.877930,296.395905 391.266968,294.237183 
	C390.133606,303.566101 385.242950,309.947845 379.563843,315.763458 
	C377.652710,317.720490 375.262512,319.858398 372.745453,320.455200 
	C364.705475,322.361542 357.673523,325.076813 355.284363,334.076996 
	C355.098694,334.776398 354.372467,335.382141 353.793304,335.919037 
	C350.326752,339.132843 346.536987,342.053406 343.411743,345.566956 
	C338.786591,350.766907 333.847351,354.745819 325.783020,353.071655 
	C327.630463,357.809937 326.553864,360.442841 321.795929,361.204773 
	C318.310608,361.762848 314.908142,362.838318 311.068634,363.781464 
	C312.074829,370.548920 305.820251,366.778900 303.753601,368.115417 
	C302.115143,374.207764 301.975403,380.095306 297.224365,384.111206 
	C295.931641,385.203949 294.304535,385.901184 292.219513,387.144470 
	C295.036072,389.161774 297.301117,390.784058 299.789337,392.566162 
	C294.968109,394.168335 286.724091,393.707825 283.297974,390.811615 
	C280.018768,388.039612 277.194092,384.424072 279.445343,379.175598 
	C277.048096,379.023865 275.425568,378.921204 272.983276,378.766632 
	C275.295593,378.129791 277.041992,378.021973 278.295258,377.180054 
	C279.219879,376.558929 280.250244,374.710907 279.948639,373.870880 
	C277.808289,367.909485 278.427582,362.267548 280.688965,356.471191 
	C281.918274,353.320129 282.700958,349.859833 282.944000,346.485626 
	C283.553070,338.028290 283.725037,329.539856 284.127045,321.066467 
	C284.156250,320.450958 284.617706,319.852509 284.892456,319.252655 
	C287.568604,313.410797 286.006714,305.734528 277.889069,301.862915 
	C274.218964,300.112488 270.891876,297.655640 267.284454,295.756226 
	C265.088440,294.600006 262.621765,293.036621 260.332672,293.123993 
	C241.837067,293.829926 223.348480,294.776794 204.870193,295.862305 
	C186.405487,296.947052 167.955170,298.276947 147.558121,299.627899 
	C153.511185,310.829254 158.446655,320.933289 164.169678,330.569519 
	C167.459732,336.109222 172.025711,340.891083 176.020660,346.357300 
	C176.364349,347.254395 176.704697,347.808258 176.995163,348.431244 
	C176.945267,348.500366 177.008667,348.658630 176.551941,348.801697 
	C151.759888,349.018585 127.424545,349.092407 102.683578,349.078247 
	C90.838768,348.754822 80.162750,345.278015 70.084702,340.347321 
	C60.584827,335.699554 52.487484,329.163391 44.662380,321.723419 
	C36.432205,313.898285 30.767881,304.799042 25.917633,295.171906 
	C20.752594,284.919952 18.017420,273.633789 17.908310,261.481323 
	C17.929979,244.029572 17.887981,227.041946 17.891254,209.610168 
	C19.913631,200.259033 21.239338,191.142166 24.025278,182.495789 
	C27.901859,170.464584 35.321491,160.487427 44.135807,151.369400 
	C56.195663,138.893967 70.519539,130.552719 87.128288,126.043663 
	C92.349892,124.626083 97.761635,123.908844 103.551041,122.876160 
	C129.801666,122.922859 155.587646,122.989151 181.373306,122.925285 
	C182.532471,122.922417 183.688705,121.739655 185.172150,120.967056 
	C190.025116,116.806122 194.552246,112.784592 199.399933,108.688721 
	C201.511047,105.211472 198.664871,106.033707 197.203003,106.033669 
	C166.149261,106.032974 135.095520,106.089622 103.628151,106.097321 
	C101.268806,106.352028 99.330849,106.717209 97.376183,106.925697 
	C79.013535,108.884377 62.431477,115.647575 47.280418,125.937157 
	C42.249943,129.353516 37.293957,133.171158 33.229828,137.646225 
	C27.959341,143.449631 23.626587,150.102844 18.868382,156.373718 
	C11.000128,166.743347 6.938140,178.720856 3.928274,191.187393 
	C3.356442,193.555878 1.996376,195.734024 0.999999,198.000000 
M182.630356,207.163742 
	C179.860641,207.163742 177.090942,207.163742 173.999893,207.163742 
	C173.999893,216.834106 174.049133,226.281448 173.948364,235.727203 
	C173.932709,237.194580 173.231354,238.654633 172.332001,239.676300 
	C166.288696,230.671967 160.073380,221.776215 154.286377,212.610077 
	C151.957520,208.921310 149.317657,207.171066 144.262115,208.492004 
	C144.184891,224.739227 144.099121,240.986435 144.069275,257.233734 
	C144.068329,257.752625 144.641479,258.272522 145.731339,258.906281 
	C147.496948,258.628601 149.262558,258.350922 151.351868,258.829315 
	C151.901291,258.134521 152.925644,257.441742 152.928635,256.744598 
	C152.971100,246.833145 152.875290,236.921127 153.520065,226.691177 
	C159.254395,235.002762 164.981384,243.319412 170.726227,251.623718 
	C173.489227,255.617722 175.626816,260.631714 182.810654,258.404449 
	C182.828552,241.601288 182.846451,224.798126 182.630356,207.163742 
M476.849731,258.643372 
	C476.899109,242.588791 476.962921,226.534210 476.953766,210.479675 
	C476.953339,209.703079 476.310547,208.926865 475.065979,208.025940 
	C471.718750,208.068985 468.371552,208.112030 464.193756,208.423813 
	C464.193756,225.246460 464.193756,242.069107 464.193756,258.875824 
	C468.406189,258.875824 472.204407,258.875824 476.849731,258.643372 
M341.016815,208.914703 
	C341.016815,225.494293 341.016815,242.073868 341.016815,259.005310 
	C344.816071,259.005310 348.266479,259.046539 351.713379,258.954590 
	C352.158112,258.942719 352.584473,258.241241 352.998901,256.942200 
	C352.998901,252.149643 352.998901,247.357086 352.998901,242.597061 
	C356.920288,241.304764 359.304901,241.941803 360.889374,245.694168 
	C362.476105,249.451797 364.604980,253.003021 366.748138,256.489838 
	C367.412079,257.570099 368.848450,258.737030 370.020142,258.838684 
	C373.560730,259.145935 377.145020,258.949707 381.748779,258.949707 
	C377.764587,251.926468 374.324493,245.862411 370.816650,239.678879 
	C375.638580,236.281799 379.750519,232.854202 380.016541,226.645752 
	C380.356262,218.716782 378.479584,212.159348 365.772095,207.239380 
	C359.663666,207.160660 353.554382,206.993179 347.447266,207.051895 
	C345.342224,207.072144 343.242554,207.656052 341.016815,208.914703 
M384.911652,258.988739 
	C395.777924,258.992157 406.644440,259.033112 417.510101,258.953888 
	C418.948578,258.943359 420.382568,258.320801 421.929016,257.082397 
	C421.891968,254.062256 421.854919,251.042130 421.468475,247.250290 
	C413.394867,247.250290 405.321259,247.250290 397.454437,247.250290 
	C396.896637,243.909119 396.494293,241.499054 397.013580,238.997147 
	C401.002808,238.987503 404.993683,239.047592 408.980988,238.954529 
	C419.195007,238.716187 419.327148,241.498810 418.817505,228.268707 
	C418.806580,227.984680 418.533478,227.710754 418.165497,227.030777 
	C411.115631,227.030777 403.853546,227.030777 396.689819,227.030777 
	C396.689819,224.487793 396.689819,222.365753 396.689819,219.988098 
	C401.117096,219.988098 405.428223,220.074554 409.734833,219.971664 
	C421.992462,219.678802 421.238892,222.659210 420.685791,207.197189 
	C408.149170,207.197189 395.612549,207.197189 382.999451,207.197189 
	C382.999451,223.789658 382.982788,239.900833 383.041382,256.011749 
	C383.044830,256.963409 383.653656,257.912872 384.911652,258.988739 
M99.009209,245.927719 
	C103.110909,257.421478 114.417580,262.678589 125.838150,257.906799 
	C131.692245,255.460785 135.872330,251.136459 136.799042,243.749985 
	C136.862869,232.499802 136.942780,221.249619 136.946793,209.999420 
	C136.947006,209.386673 136.313568,208.773712 135.113220,208.041824 
	C133.086334,208.081131 131.059433,208.120438 128.202576,208.427261 
	C128.196457,219.924667 128.190338,231.422058 128.007889,243.633484 
	C124.978775,247.551712 122.379013,252.309570 116.461868,251.912643 
	C111.112587,251.553818 108.122040,248.144302 106.968636,242.110840 
	C106.981506,232.061646 107.030624,222.012207 106.962021,211.963562 
	C106.953308,210.686890 106.328629,209.414413 105.121765,208.032089 
	C103.085243,208.076126 101.048729,208.120148 98.189491,208.443558 
	C98.111893,220.040436 98.016594,231.637314 98.003273,243.234268 
	C98.002518,243.889175 98.675293,244.544876 99.009209,245.927719 
M192.859406,258.916992 
	C199.413132,258.704254 206.172714,259.441925 212.476715,258.076385 
	C224.727295,255.422745 231.071854,245.732864 230.987518,231.938004 
	C230.922562,221.310684 223.075775,210.875626 212.735504,209.143646 
	C205.968628,208.010208 198.941635,208.429703 191.209991,208.438278 
	C191.146500,224.727493 191.074875,241.016708 191.057541,257.305969 
	C191.056992,257.811615 191.618790,258.317810 192.859406,258.916992 
M322.732635,207.225723 
	C314.844360,207.225723 306.956085,207.225723 299.000580,207.225723 
	C299.000580,223.805649 298.983521,239.927780 299.044464,256.049652 
	C299.047974,256.982544 299.685333,257.913055 300.937317,258.936218 
	C302.762817,258.947357 304.609558,258.784241 306.409576,259.004150 
	C310.824036,259.543335 312.428131,257.684082 312.042419,253.338928 
	C311.753784,250.087616 311.985443,246.790100 311.985443,243.296890 
	C315.612671,243.046783 318.707733,242.859711 321.798248,242.615585 
	C333.647156,241.679672 340.167725,232.063110 337.303680,220.532257 
	C335.395325,212.849136 329.619019,210.199615 322.732635,207.225723 
M81.830269,232.400452 
	C81.886383,239.970154 81.897202,247.540741 82.043312,255.108704 
	C82.067574,256.365326 82.681992,257.610535 83.821518,258.938019 
	C85.850708,258.641113 87.879898,258.344208 90.393822,258.612152 
	C90.593422,258.019623 90.966057,257.427490 90.967339,256.834534 
	C91.000595,241.408142 91.010597,225.981583 90.952576,210.555344 
	C90.949585,209.761444 90.307053,208.969925 89.136749,208.054123 
	C85.264130,207.279663 83.068542,208.796280 81.640152,212.563400 
	C79.493912,218.223724 76.856964,223.703735 74.302284,229.201721 
	C72.136803,233.862061 69.792213,238.439194 67.025162,244.075027 
	C58.070671,232.446747 54.766823,219.086700 48.174927,207.631241 
	C45.959560,207.824036 44.003563,207.994263 41.200661,208.398972 
	C41.200661,225.244324 41.200661,242.089676 41.200661,258.698425 
	C44.382847,258.698425 47.126083,258.698425 49.997726,258.698425 
	C49.997726,251.286850 49.937222,244.166214 50.043514,237.048050 
	C50.067772,235.423584 50.668076,233.807709 51.252075,232.832428 
	C52.465431,235.662338 53.625107,238.516769 54.903790,241.316833 
	C57.258827,246.473938 59.464645,251.717621 62.156796,256.695831 
	C63.945530,260.003479 68.469040,260.071198 69.940346,256.928711 
	C73.795273,248.695145 77.366470,240.328751 81.830269,232.400452 
M534.895081,258.934143 
	C538.231628,258.634521 541.568237,258.334869 545.379517,258.611572 
	C545.585266,251.264740 545.742859,243.915970 546.038147,236.572739 
	C546.095825,235.138367 546.687378,233.725464 547.302368,232.904831 
	C553.051758,241.254379 558.801086,249.603912 565.104370,258.695251 
	C569.012451,258.695251 572.920471,258.695251 576.998169,258.695251 
	C576.998169,242.462204 577.012695,226.492401 576.954468,210.522842 
	C576.951660,209.738998 576.312927,208.957474 575.065796,208.054184 
	C571.720581,208.091324 568.375366,208.128448 564.190430,208.412521 
	C564.125488,215.781906 564.112183,223.152420 563.950867,230.519699 
	C563.919617,231.946655 563.310547,233.360977 562.740967,234.152252 
	C556.737122,225.215912 550.733337,216.279587 544.829102,207.491486 
	C541.174805,207.713333 537.595276,207.930649 533.176208,208.402679 
	C533.118042,224.621063 533.048950,240.839447 533.044373,257.057831 
	C533.044189,257.659515 533.672363,258.261353 534.895081,258.934143 
M483.734528,219.731476 
	C482.522736,223.019424 480.770752,226.217377 480.204926,229.612976 
	C478.763702,238.261612 481.063171,246.599594 487.164917,252.449860 
	C498.022919,262.860382 517.336121,261.507385 525.705994,248.891693 
	C532.867615,238.097198 532.006714,226.442001 524.177002,216.656174 
	C517.838013,208.733521 509.285858,206.611786 499.715424,207.958115 
	C492.676697,208.948288 487.577271,213.011597 483.734528,219.731476 
M448.230164,224.316788 
	C449.940033,224.465790 451.649841,224.615128 453.359741,224.763733 
	C459.873352,225.329788 461.255493,223.569366 458.838104,217.568497 
	C458.297516,216.226547 457.366119,214.998734 456.436676,213.864182 
	C452.208710,208.703430 446.596619,207.983307 440.217651,207.735626 
	C433.712738,207.483078 429.195007,209.647415 425.781738,214.708786 
	C422.753967,219.198502 423.529694,224.119263 424.946869,228.911316 
	C426.537933,234.291321 431.556488,235.354050 435.921295,237.149109 
	C440.239838,238.925186 444.589935,240.624664 448.703735,242.268814 
	C447.773529,247.946838 443.596191,248.623703 440.625580,248.305344 
	C438.141144,248.039108 435.959564,244.946426 433.643860,243.105377 
	C431.627808,241.966492 428.938049,241.722916 426.329834,242.078125 
	C425.175293,242.235367 423.146912,244.039261 423.280060,244.357574 
	C424.843140,248.095169 426.017120,252.390747 428.704620,255.179520 
	C434.088837,260.766632 441.613556,259.455292 448.296265,258.616150 
	C456.013641,257.647095 460.310028,252.368454 461.045380,246.220673 
	C461.920258,238.906860 456.963043,231.793091 449.816101,229.850372 
	C446.688080,229.000092 443.440399,228.281921 440.594391,226.825180 
	C439.045227,226.032196 437.607239,223.914780 437.338531,222.203262 
	C437.207855,221.370926 439.735718,219.530670 441.306396,219.141937 
	C444.824341,218.271255 446.758972,220.602814 448.230164,224.316788 
M269.954437,211.426788 
	C263.033722,207.102737 255.553665,206.276596 248.047653,209.058990 
	C237.005081,213.152359 229.933594,230.352219 234.048447,241.553986 
	C237.915741,252.081863 244.251389,258.365906 255.753311,259.151062 
	C266.879639,259.910614 276.376038,253.247589 280.308105,242.792862 
	C284.890259,230.609619 278.826721,217.254410 269.954437,211.426788 
M152.842529,167.414734 
	C151.534698,170.722397 150.226883,174.030060 148.789124,177.666321 
	C161.392853,176.539886 173.463699,175.461090 185.950531,174.345093 
	C184.163467,168.933212 182.576782,164.128204 180.990112,159.323212 
	C180.561249,159.366623 180.132370,159.410034 179.703506,159.453445 
	C179.316452,161.546066 178.929413,163.638687 178.462753,166.161743 
	C174.735886,163.851761 174.082184,160.372177 175.421600,157.707504 
	C179.420547,149.751877 176.080719,141.590988 176.866867,133.593826 
	C176.934723,132.903564 176.069107,132.121552 175.441772,131.047821 
	C170.930313,136.690521 166.242889,141.574997 162.740479,147.197632 
	C158.920929,153.329361 156.199707,160.145264 152.842529,167.414734 
M273.249542,96.435013 
	C273.512329,91.516563 274.485413,87.121490 281.120544,87.245392 
	C279.721741,85.327019 278.873444,84.163582 278.539917,83.706192 
	C282.268127,80.278389 285.665649,77.154625 289.063171,74.030861 
	C288.687531,73.260162 288.311890,72.489456 287.936249,71.718758 
	C286.211212,71.522331 284.306885,70.751236 282.790710,71.224236 
	C273.993500,73.968651 265.282135,76.989708 256.556183,79.959618 
	C255.057327,80.469765 253.627899,81.183907 251.969864,81.887177 
	C252.698807,83.493736 252.995468,85.417572 253.759872,85.625999 
	C258.696381,86.972031 263.735016,87.943558 268.785583,89.047859 
	C269.057983,92.811295 269.340851,96.719421 269.623718,100.627556 
	C270.019989,100.739449 270.416260,100.851341 270.812531,100.963234 
	C271.558868,99.707001 272.305206,98.450760 273.249542,96.435013 
M504.102325,202.945099 
	C512.623352,204.581238 513.475891,196.608643 518.299438,191.997025 
	C515.764221,191.997025 514.114014,192.280823 512.599915,191.947174 
	C506.514893,190.606354 503.973022,194.314697 502.389709,199.107819 
	C502.044647,200.152359 502.982361,201.620636 504.102325,202.945099 
M255.814835,106.577057 
	C256.834045,103.918121 255.912048,101.969627 253.115051,102.151108 
	C249.824036,102.364647 246.587799,103.422615 243.327820,104.114410 
	C243.372437,104.556282 243.417068,104.998154 243.461685,105.440025 
	C247.325272,105.822411 251.188843,106.204788 255.814835,106.577057 
z"/>
<path fill="#1D4294" opacity="1.000000" stroke="none" 
	d="
M0.999999,198.468658 
	C1.996376,195.734024 3.356442,193.555878 3.928274,191.187393 
	C6.938140,178.720856 11.000128,166.743347 18.868382,156.373718 
	C23.626587,150.102844 27.959341,143.449631 33.229828,137.646225 
	C37.293957,133.171158 42.249943,129.353516 47.280418,125.937157 
	C62.431477,115.647575 79.013535,108.884377 97.376183,106.925697 
	C99.330849,106.717209 101.268806,106.352028 103.902588,106.413063 
	C106.241920,106.838600 107.893166,106.972664 109.544472,106.973381 
	C137.757233,106.985687 165.970093,106.951859 194.182465,107.057091 
	C195.816879,107.063179 197.447174,108.169037 199.079376,108.763077 
	C194.552246,112.784592 190.025116,116.806122 184.823547,121.182487 
	C182.349915,121.690605 180.550888,121.974655 178.751465,121.977234 
	C157.129776,122.008278 135.507874,121.957870 113.886436,122.037025 
	C110.285431,122.050201 106.686333,122.579994 103.086349,122.871056 
	C97.761635,123.908844 92.349892,124.626083 87.128288,126.043663 
	C70.519539,130.552719 56.195663,138.893967 44.135807,151.369400 
	C35.321491,160.487427 27.901859,170.464584 24.025278,182.495789 
	C21.239338,191.142166 19.913631,200.259033 17.548719,209.858459 
	C17.102301,226.972763 17.032869,243.394623 17.021776,259.816498 
	C17.021297,260.525940 17.558109,261.235779 17.844637,261.945435 
	C18.017420,273.633789 20.752594,284.919952 25.917633,295.171906 
	C30.767881,304.799042 36.432205,313.898285 44.662380,321.723419 
	C52.487484,329.163391 60.584827,335.699554 70.084702,340.347321 
	C80.162750,345.278015 90.838768,348.754822 103.015839,349.310699 
	C104.573242,349.737671 105.392654,349.936371 106.212303,349.937347 
	C129.271286,349.965027 152.330276,349.974121 175.389282,349.978027 
	C176.215012,349.978149 177.040741,349.895142 177.866470,349.850891 
	C177.580536,349.453491 177.294601,349.056061 177.008667,348.658630 
	C177.008667,348.658630 176.945267,348.500366 177.032990,348.079712 
	C176.752914,347.110748 176.385117,346.562439 176.017334,346.014099 
	C172.025711,340.891083 167.459732,336.109222 164.169678,330.569519 
	C158.446655,320.933289 153.511185,310.829254 147.558121,299.627899 
	C167.955170,298.276947 186.405487,296.947052 204.870193,295.862305 
	C223.348480,294.776794 241.837067,293.829926 260.332672,293.123993 
	C262.621765,293.036621 265.088440,294.600006 267.284454,295.756226 
	C270.891876,297.655640 274.218964,300.112488 277.889069,301.862915 
	C286.006714,305.734528 287.568604,313.410797 284.892456,319.252655 
	C284.617706,319.852509 284.156250,320.450958 284.127045,321.066467 
	C283.725037,329.539856 283.553070,338.028290 282.944000,346.485626 
	C282.700958,349.859833 281.918274,353.320129 280.688965,356.471191 
	C278.427582,362.267548 277.808289,367.909485 279.948639,373.870880 
	C280.250244,374.710907 279.219879,376.558929 278.295258,377.180054 
	C277.041992,378.021973 275.295593,378.129791 272.983276,378.766632 
	C275.425568,378.921204 277.048096,379.023865 279.445343,379.175598 
	C277.194092,384.424072 280.018768,388.039612 283.297974,390.811615 
	C286.724091,393.707825 294.968109,394.168335 299.789337,392.566162 
	C297.301117,390.784058 295.036072,389.161774 292.219513,387.144470 
	C294.304535,385.901184 295.931641,385.203949 297.224365,384.111206 
	C301.975403,380.095306 302.115143,374.207764 303.753601,368.115417 
	C305.820251,366.778900 312.074829,370.548920 311.068634,363.781464 
	C314.908142,362.838318 318.310608,361.762848 321.795929,361.204773 
	C326.553864,360.442841 327.630463,357.809937 325.783020,353.071655 
	C333.847351,354.745819 338.786591,350.766907 343.411743,345.566956 
	C346.536987,342.053406 350.326752,339.132843 353.793304,335.919037 
	C354.372467,335.382141 355.098694,334.776398 355.284363,334.076996 
	C357.673523,325.076813 364.705475,322.361542 372.745453,320.455200 
	C375.262512,319.858398 377.652710,317.720490 379.563843,315.763458 
	C385.242950,309.947845 390.133606,303.566101 391.266968,294.237183 
	C415.877930,296.395905 440.010895,298.512665 464.858002,300.692078 
	C457.907928,318.456787 448.895538,334.049530 436.003418,348.058533 
	C436.784943,348.920776 438.196808,349.905334 439.613068,349.911652 
	C461.319214,350.008942 483.026001,349.998047 504.732422,349.941803 
	C506.488037,349.937256 508.242340,349.418213 509.997253,349.138275 
	C527.097229,347.591583 542.856689,342.371277 556.611267,331.859772 
	C561.942322,327.785736 567.884888,324.126465 572.113647,319.076447 
	C580.707764,308.813263 588.945251,298.121979 591.494202,284.306396 
	C592.649902,278.042572 594.471313,271.901581 596.283997,264.924744 
	C596.664612,245.930054 596.760132,227.715500 596.811157,209.500824 
	C596.813354,208.715286 596.405334,207.928619 596.188416,207.142487 
	C594.440552,189.046997 587.575745,173.066513 576.293518,158.897934 
	C560.182556,138.665253 539.436096,126.781151 513.612122,123.996063 
	C510.675201,123.679329 507.747559,123.276596 504.090698,122.562698 
	C501.549011,122.143562 499.732300,122.018631 497.915436,122.015968 
	C474.885376,121.982193 451.855286,121.966011 428.825226,121.945343 
	C426.245789,120.468468 423.666382,118.991585 421.086945,117.514709 
	C420.726135,117.922546 420.365356,118.330376 420.004547,118.738213 
	C423.760620,124.034264 427.556427,129.302841 431.252441,134.640457 
	C432.650391,136.659286 434.482391,138.699066 434.955963,140.971191 
	C436.025177,146.101288 436.302429,151.392410 437.079834,156.591415 
	C437.207336,157.444092 438.111023,158.338074 438.882446,158.904694 
	C440.547546,160.127808 442.359650,161.150742 443.314301,161.752762 
	C442.012238,165.644928 440.575714,168.668457 440.060028,171.841629 
	C439.555817,174.944168 437.750031,175.185760 435.476013,174.980148 
	C424.964111,174.029617 414.465820,172.923569 403.949402,172.029144 
	C393.321747,171.125229 382.689789,170.154877 372.038971,169.671661 
	C360.654541,169.155182 349.245850,169.173920 337.180450,168.547241 
	C324.018585,168.104004 311.524017,168.072556 299.029449,168.041122 
	C295.499146,168.356354 291.974274,168.843094 288.437531,168.956024 
	C275.651581,169.364258 262.854553,169.484146 250.075653,170.035660 
	C241.933029,170.387085 233.824738,171.503616 225.682739,171.910629 
	C219.373215,172.226028 213.035309,171.973648 206.152023,171.973648 
	C206.614700,165.943665 208.804535,160.178940 213.004715,154.937744 
	C217.845932,148.896637 224.581833,151.361389 230.780045,150.709396 
	C230.698090,149.348068 230.634262,148.288025 230.547668,146.849579 
	C234.767395,147.917572 238.788406,149.699158 242.839005,149.769180 
	C248.026489,149.858841 248.770554,152.508118 249.060608,156.612091 
	C249.402756,161.453430 252.141647,163.189575 255.210526,160.623077 
	C256.198914,159.796494 256.587708,157.552200 256.358276,156.097183 
	C255.561844,151.045944 252.676559,145.814621 257.857452,141.511093 
	C259.669983,140.005508 261.898743,138.957474 264.032898,137.891586 
	C268.604492,135.608322 273.938324,134.110199 273.825226,127.452026 
	C273.818207,127.038322 273.827789,126.277840 273.934570,126.258507 
	C278.822296,125.373909 280.142883,118.700745 285.782654,118.975204 
	C286.640625,119.016968 288.169403,118.436821 288.319153,117.864647 
	C290.119904,110.983376 296.472168,112.767624 301.223602,110.117226 
	C301.223602,112.185516 301.223602,113.336311 301.223602,114.650856 
	C306.854950,112.592171 312.226746,110.628372 317.937073,108.240417 
	C318.082581,107.620430 317.889557,107.424591 317.696564,107.228745 
	C317.696564,107.228752 317.629883,107.244537 317.824127,107.001892 
	C318.653168,106.249321 319.287994,105.739395 319.922821,105.229492 
	C320.722076,105.188744 321.521332,105.147995 322.908936,105.373230 
	C324.032684,105.750938 324.568115,105.862663 325.103516,105.974388 
	C325.416901,106.050194 325.663239,106.222099 326.109863,106.971733 
	C328.299316,107.621040 330.221436,107.788719 332.143555,107.956390 
	C334.232361,106.654671 337.346283,106.386009 332.566956,103.397514 
	C330.104523,101.857750 328.822235,98.559914 324.956116,99.871178 
	C325.540680,93.139427 323.370972,91.011703 317.142120,88.750809 
	C312.812469,87.179283 309.082794,83.954895 304.945251,81.381966 
	C298.749207,85.237373 297.952667,85.092842 296.859467,80.437492 
	C300.819397,78.248291 304.592773,76.162224 308.366150,74.076149 
	C308.180939,73.546700 307.995728,73.017242 307.810516,72.487793 
	C305.291229,72.058846 302.771942,71.629898 299.490997,71.071266 
	C305.703918,66.850128 317.703186,68.641266 321.341431,73.589142 
	C324.181335,77.451324 338.141632,81.902596 343.127899,80.538620 
	C343.121460,78.944717 343.121460,77.350052 343.121460,75.004158 
	C346.118958,75.004158 349.293427,74.277695 351.975616,75.119560 
	C372.668915,81.614616 392.402313,90.126175 409.459015,103.929543 
	C410.335175,104.638618 411.383881,105.134506 412.942078,106.221161 
	C429.676971,106.794533 445.821930,106.889694 461.967041,106.911919 
	C462.646423,106.912857 463.326721,106.235214 464.006622,105.873703 
	C464.006622,104.553879 464.006622,103.234055 464.006622,101.773300 
	C449.250946,99.556282 437.301788,92.277527 429.640045,80.021538 
	C419.295410,63.473831 418.139923,45.799744 427.425140,27.934298 
	C433.763397,15.739057 443.451965,7.664707 456.204132,2.983479 
	C456.915833,2.722228 457.516815,2.159369 458.084656,1.368444 
	C460.370575,1.000000 462.741119,1.000000 465.811951,1.322468 
	C470.008148,1.429957 473.504059,1.214978 477.000000,0.999999 
	C478.714355,1.000000 480.428711,1.000000 482.642944,1.375552 
	C483.422333,2.119980 483.645782,2.746151 483.989410,2.821047 
	C508.511871,8.165999 526.409485,34.374111 522.117920,59.129448 
	C518.611633,79.355209 504.664856,95.904984 484.214874,100.958733 
	C481.806183,101.553986 479.702454,102.114098 479.609650,105.439651 
	C480.643799,106.130035 481.874084,106.908539 483.113312,106.923019 
	C491.403046,107.019882 499.694672,106.953926 508.376617,106.969788 
	C511.373291,106.977623 514.106812,106.432137 516.561707,107.030106 
	C525.161255,109.124786 533.744568,111.359337 542.188904,114.004066 
	C561.619202,120.089569 576.555359,132.816986 589.285767,148.003525 
	C600.745850,161.674759 607.850708,177.745789 611.188171,195.382172 
	C611.307556,196.013138 612.374634,196.464783 613.000000,197.000000 
	C613.000000,201.356903 613.000000,205.713806 612.676636,210.806213 
	C612.260010,227.477448 612.157471,243.413132 612.113037,259.348999 
	C612.111511,259.898499 612.691223,260.449615 613.000000,261.000000 
	C613.000000,265.689240 613.000000,270.378510 612.600525,275.485291 
	C611.795837,276.731049 611.190125,277.519012 611.014709,278.393341 
	C606.698669,299.906067 596.447144,318.408691 581.244995,333.892212 
	C571.135620,344.188629 559.273071,352.460938 545.600952,357.779327 
	C534.038635,362.277069 522.294861,365.737366 509.714325,365.503693 
	C503.319275,365.384888 496.920135,365.482880 489.980316,365.482880 
	C489.980316,372.974823 489.907074,379.416077 490.012970,385.854431 
	C490.061829,388.826935 488.884644,390.085388 485.883545,390.008087 
	C479.902100,389.854095 473.916290,389.869141 467.930237,389.358765 
	C467.931396,385.426849 468.064270,381.944611 467.904388,378.475830 
	C467.712036,374.301361 467.270721,370.138367 466.969299,365.984619 
	C467.001404,365.998871 466.972931,366.063080 467.062805,365.782043 
	C467.106873,365.309662 467.061096,365.118378 466.699768,364.655090 
	C451.161713,364.275269 435.939209,364.157837 420.716522,364.096405 
	C420.139160,364.094086 419.559662,364.633820 418.902832,365.209717 
	C418.892273,365.686127 418.959991,365.873749 419.015533,366.032318 
	C419.003387,366.003296 419.064423,366.018646 418.755981,365.961304 
	C417.975220,366.256744 417.502899,366.609558 416.910461,367.282410 
	C409.307861,373.145721 402.162537,379.233337 394.273010,384.119263 
	C377.690308,394.388885 359.871979,401.699921 340.357239,404.485474 
	C337.463226,404.898529 334.780487,406.791626 332.000000,408.000000 
	C330.933319,408.000000 329.866669,408.000000 328.546753,407.702087 
	C328.004547,407.088348 327.715546,406.772491 327.426514,406.456635 
	C327.284332,406.971069 327.142151,407.485535 327.000000,408.000000 
	C322.975464,408.000000 318.950897,408.000000 314.207947,407.676270 
	C309.993042,407.568329 306.496521,407.784149 303.000000,408.000000 
	C296.312347,408.000000 289.624725,408.000000 282.514740,407.594360 
	C278.161407,406.374786 274.203705,405.671417 270.304016,404.728027 
	C252.277939,400.367188 234.940826,394.142059 219.331482,383.988586 
	C210.911179,378.511383 203.092728,372.108917 195.019012,365.848450 
	C195.022324,365.389557 195.009384,365.206085 194.699951,364.728271 
	C178.804626,364.321045 163.205811,364.197418 147.606735,364.141327 
	C147.080780,364.139435 146.552368,364.818634 146.040375,365.404999 
	C146.055634,365.629608 146.152237,366.069366 146.071320,366.527130 
	C145.990417,374.212128 145.990417,381.439331 145.990417,388.808716 
	C138.243149,388.808716 131.153656,388.808716 124.051392,388.352234 
	C124.038628,380.659180 124.038628,373.422577 124.038628,365.952728 
	C118.825859,365.952728 114.506310,365.879852 110.189964,365.966644 
	C98.186058,366.208008 86.362839,364.580872 75.156677,360.519318 
	C56.058861,353.597504 39.434349,342.965881 26.277977,326.973145 
	C13.930076,311.963135 6.071779,295.201569 2.916583,276.105621 
	C2.786724,275.319641 1.661487,274.698151 0.999996,274.000000 
	C1.000000,248.979111 1.000000,223.958206 0.999999,198.468658 
M434.906708,69.454338 
	C435.466644,69.685951 436.026581,69.917564 437.103088,70.854347 
	C437.715454,72.686821 437.830200,74.970459 439.018341,76.280914 
	C449.164246,87.471313 460.863525,94.798943 477.014862,91.998528 
	C487.337738,90.208679 496.581512,86.027061 502.965729,78.128418 
	C510.844543,68.380577 515.164490,57.032909 512.025757,43.808846 
	C508.739349,29.962545 497.671997,17.359747 483.954498,12.967588 
	C473.229218,9.533519 463.170502,11.086525 452.762329,14.671311 
	C452.200745,15.143685 451.639160,15.616060 451.070343,16.067347 
	C451.070343,16.067347 451.056885,16.071852 450.312103,16.029089 
	C447.894745,18.051699 445.477386,20.074306 443.005707,22.057661 
	C443.005707,22.057661 443.065826,22.028051 442.615631,22.258455 
	C442.419708,22.527620 442.223816,22.796785 442.057739,23.005865 
	C442.057739,23.005865 442.097076,23.060207 441.364166,23.084669 
	C440.589294,24.410707 439.814423,25.736746 439.024475,26.994755 
	C439.024475,26.994755 439.082794,27.032923 438.387207,27.114542 
	C435.624268,32.222649 432.759583,37.280796 430.201721,42.489597 
	C429.790649,43.326683 430.748901,44.836212 431.012939,46.944088 
	C431.278076,52.026886 429.829956,57.428837 433.907562,61.974564 
	C433.907562,61.974564 434.052948,62.102978 433.917389,62.593349 
	C434.272064,64.101402 434.626740,65.609459 435.048340,67.701073 
	C435.030548,68.091568 435.012756,68.482056 434.906708,69.454338 
M313.832397,385.064636 
	C313.704193,385.166656 313.552185,385.251160 313.458252,385.378479 
	C313.414276,385.437988 313.472839,385.669037 313.501099,385.672058 
	C314.226959,385.750092 314.954956,385.808228 315.682587,385.869812 
	C315.705322,385.710571 315.728058,385.551331 315.750763,385.392090 
	C315.344910,385.261597 314.939087,385.131104 313.832397,385.064636 
z"/>
<path fill="#000000" opacity="1.000000" stroke="none" 
	d="
M479.809937,105.174339 
	C479.702454,102.114098 481.806183,101.553986 484.214874,100.958733 
	C504.664856,95.904984 518.611633,79.355209 522.117920,59.129448 
	C526.409485,34.374111 508.511871,8.165999 483.989410,2.821047 
	C483.645782,2.746151 483.422333,2.119980 483.071411,1.375552 
	C526.275085,1.000000 569.550232,1.000000 613.000000,1.000000 
	C613.000000,66.020790 613.000000,131.041733 613.000000,196.531342 
	C612.374634,196.464783 611.307556,196.013138 611.188171,195.382172 
	C607.850708,177.745789 600.745850,161.674759 589.285767,148.003525 
	C576.555359,132.816986 561.619202,120.089569 542.188904,114.004066 
	C533.744568,111.359337 525.161255,109.124786 516.561707,107.030106 
	C514.106812,106.432137 511.373291,106.977623 508.165283,106.594833 
	C503.136261,106.126419 498.706512,106.141258 494.283508,105.976067 
	C489.455750,105.795746 484.634186,105.448708 479.809937,105.174339 
z"/>
<path fill="#000000" opacity="1.000000" stroke="none" 
	d="
M467.932281,389.814362 
	C473.916290,389.869141 479.902100,389.854095 485.883545,390.008087 
	C488.884644,390.085388 490.061829,388.826935 490.012970,385.854431 
	C489.907074,379.416077 489.980316,372.974823 489.980316,365.482880 
	C496.920135,365.482880 503.319275,365.384888 509.714325,365.503693 
	C522.294861,365.737366 534.038635,362.277069 545.600952,357.779327 
	C559.273071,352.460938 571.135620,344.188629 581.244995,333.892212 
	C596.447144,318.408691 606.698669,299.906067 611.014709,278.393341 
	C611.190125,277.519012 611.795837,276.731049 612.600525,275.951416 
	C613.000000,319.953339 613.000000,363.906708 613.000000,408.000000 
	C519.645813,408.000000 426.291565,408.000000 332.468658,408.000000 
	C334.780487,406.791626 337.463226,404.898529 340.357239,404.485474 
	C359.871979,401.699921 377.690308,394.388885 394.273010,384.119263 
	C402.162537,379.233337 409.307861,373.145721 417.223145,367.280151 
	C418.125427,366.644775 418.594910,366.331696 419.064423,366.018616 
	C419.064423,366.018646 419.003387,366.003296 419.481598,366.012878 
	C435.630859,366.035980 451.301880,366.049530 466.972931,366.063080 
	C466.972931,366.063080 467.001404,365.998871 467.002197,366.455231 
	C467.007843,370.066162 466.902679,373.225647 467.043976,376.374084 
	C467.245209,380.858459 467.627411,385.334656 467.932281,389.814362 
z"/>
<path fill="#000000" opacity="1.000000" stroke="none" 
	d="
M0.999996,274.468658 
	C1.661487,274.698151 2.786724,275.319641 2.916583,276.105621 
	C6.071779,295.201569 13.930076,311.963135 26.277977,326.973145 
	C39.434349,342.965881 56.058861,353.597504 75.156677,360.519318 
	C86.362839,364.580872 98.186058,366.208008 110.189964,365.966644 
	C114.506310,365.879852 118.825859,365.952728 124.038628,365.952728 
	C124.038628,373.422577 124.038628,380.659180 123.684776,388.538147 
	C131.175980,389.560822 139.021027,389.941101 147.058838,390.330719 
	C147.058838,381.584412 147.058838,373.808777 147.523621,366.019653 
	C163.659866,366.045441 179.331299,366.084656 195.002747,366.123901 
	C203.092728,372.108917 210.911179,378.511383 219.331482,383.988586 
	C234.940826,394.142059 252.277939,400.367188 270.304016,404.728027 
	C274.203705,405.671417 278.161407,406.374786 282.046204,407.594360 
	C188.432144,408.000000 94.864281,408.000000 1.000000,408.000000 
	C1.000000,363.646210 1.000000,319.291779 0.999996,274.468658 
z"/>
<path fill="#748CBB" opacity="1.000000" stroke="none" 
	d="
M613.000000,260.531342 
	C612.691223,260.449615 612.111511,259.898499 612.113037,259.348999 
	C612.157471,243.413132 612.260010,227.477448 612.676636,211.270874 
	C613.000000,227.354233 613.000000,243.708450 613.000000,260.531342 
z"/>
<path fill="#627CB0" opacity="1.000000" stroke="none" 
	d="
M303.458069,408.000000 
	C306.496521,407.784149 309.993042,407.568329 313.744781,407.676270 
	C310.638702,408.000000 307.277435,408.000000 303.458069,408.000000 
z"/>
<path fill="#4C669F" opacity="1.000000" stroke="none" 
	d="
M476.541931,0.999999 
	C473.504059,1.214978 470.008148,1.429957 466.256104,1.322468 
	C469.361298,1.000000 472.722565,1.000000 476.541931,0.999999 
z"/>
<path fill="#000000" opacity="1.000000" stroke="none" 
	d="
M327.250000,408.000000 
	C327.142151,407.485535 327.284332,406.971069 327.426514,406.456635 
	C327.715546,406.772491 328.004547,407.088348 328.146790,407.702087 
	C328.000000,408.000000 327.500000,408.000000 327.250000,408.000000 
z"/>
<path fill="#214594" opacity="1.000000" stroke="none" 
	d="
M483.960388,219.480896 
	C487.577271,213.011597 492.676697,208.948288 499.715424,207.958115 
	C509.285858,206.611786 517.838013,208.733521 524.177002,216.656174 
	C532.006714,226.442001 532.867615,238.097198 525.705994,248.891693 
	C517.336121,261.507385 498.022919,262.860382 487.164917,252.449860 
	C481.063171,246.599594 478.763702,238.261612 480.204926,229.612976 
	C480.770752,226.217377 482.522736,223.019424 483.960388,219.480896 
M507.319855,247.004242 
	C515.356995,243.789383 518.583984,239.056717 517.956116,231.405441 
	C517.459045,225.347885 511.345886,219.448639 506.048370,219.914368 
	C494.626862,220.918472 489.136230,230.886688 494.249176,241.335724 
	C496.320801,245.569366 502.229004,248.320312 507.319855,247.004242 
z"/>
<path fill="#1E4394" opacity="1.000000" stroke="none" 
	d="
M565.030151,208.165573 
	C568.375366,208.128448 571.720581,208.091324 575.503357,208.337128 
	C575.940918,208.620071 575.828369,209.053223 575.574829,209.373749 
	C575.215576,225.765762 575.109863,241.837234 574.566772,257.966003 
	C572.074219,257.976929 570.018860,257.930511 567.829102,257.688141 
	C567.155518,257.568909 566.616455,257.645630 565.691162,257.750610 
	C565.053406,257.837097 564.801880,257.895264 564.550415,257.953461 
	C558.801086,249.603912 553.051758,241.254379 547.184082,232.202454 
	C544.197815,229.191574 545.095764,232.160324 545.081848,233.073059 
	C544.954773,241.392731 544.947266,249.714249 544.904785,258.035217 
	C541.568237,258.334869 538.231628,258.634521 534.450195,258.441101 
	C534.008728,241.348022 534.012268,224.748001 534.015747,208.147964 
	C537.595276,207.930649 541.174805,207.713333 544.829102,207.491486 
	C550.733337,216.279587 556.737122,225.215912 562.939209,234.801910 
	C566.094360,237.122818 564.915100,234.372910 564.925476,233.570251 
	C565.034180,225.102966 565.014465,216.634048 565.030151,208.165573 
z"/>
<path fill="#1D4293" opacity="1.000000" stroke="none" 
	d="
M366.213043,208.029327 
	C378.479584,212.159348 380.356262,218.716782 380.016541,226.645752 
	C379.750519,232.854202 375.638580,236.281799 370.816650,239.678879 
	C374.324493,245.862411 377.764587,251.926468 381.748779,258.949707 
	C377.145020,258.949707 373.560730,259.145935 370.020142,258.838684 
	C368.848450,258.737030 367.412079,257.570099 366.748138,256.489838 
	C364.604980,253.003021 362.476105,249.451797 360.889374,245.694168 
	C359.304901,241.941803 356.920288,241.304764 352.998901,242.597061 
	C352.998901,247.357086 352.998901,252.149643 352.551392,257.461609 
	C348.845795,257.980988 345.587677,257.980988 342.142365,257.980988 
	C342.142365,240.935440 342.142365,224.533051 342.599670,208.087967 
	C350.775665,208.039948 358.494354,208.034637 366.213043,208.029327 
M360.274689,219.993759 
	C358.330902,219.993759 356.387115,219.993759 354.193909,219.993759 
	C354.193909,223.530670 354.193909,226.465714 354.193909,229.414902 
	C356.580505,229.578171 358.822845,229.824203 361.068817,229.863098 
	C364.282013,229.918762 368.015076,230.029800 367.891693,225.509125 
	C367.786499,221.654221 365.143066,219.726578 360.274689,219.993759 
z"/>
<path fill="#1D4393" opacity="1.000000" stroke="none" 
	d="
M421.817871,248.021988 
	C421.854919,251.042130 421.891968,254.062256 421.419617,257.537720 
	C408.649750,257.942413 396.389313,257.891724 384.092651,257.383698 
	C384.056458,240.688950 384.056458,224.451553 384.056458,208.078247 
	C396.865479,208.078247 408.854614,208.078247 420.843750,208.078247 
	C421.238892,222.659210 421.992462,219.678802 409.734833,219.971664 
	C405.428223,220.074554 401.117096,219.988098 396.689819,219.988098 
	C396.689819,222.365753 396.689819,224.487793 396.689819,227.030777 
	C403.853546,227.030777 411.115631,227.030777 418.165497,227.030777 
	C418.533478,227.710754 418.806580,227.984680 418.817505,228.268707 
	C419.327148,241.498810 419.195007,238.716187 408.980988,238.954529 
	C404.993683,239.047592 401.002808,238.987503 396.277222,238.924789 
	C394.047455,247.467239 394.462250,247.980255 402.871460,247.987579 
	C409.186920,247.993073 415.502411,248.010086 421.817871,248.021988 
z"/>
<path fill="#204493" opacity="1.000000" stroke="none" 
	d="
M89.909096,258.047302 
	C87.879898,258.344208 85.850708,258.641113 83.424286,258.442444 
	C83.027061,248.504044 83.027061,239.061234 83.027061,229.618408 
	C82.700813,229.585419 82.374557,229.552429 82.048309,229.519440 
	C81.715790,230.351395 81.383270,231.183334 81.050751,232.015289 
	C77.366470,240.328751 73.795273,248.695145 69.940346,256.928711 
	C68.469040,260.071198 63.945530,260.003479 62.156796,256.695831 
	C59.464645,251.717621 57.258827,246.473938 54.903790,241.316833 
	C53.625107,238.516769 52.465431,235.662338 51.176315,232.158508 
	C50.636272,230.625992 50.171993,229.767410 49.707714,228.908844 
	C49.378784,228.999557 49.049854,229.090271 48.720924,229.180984 
	C48.720924,238.740967 48.720924,248.300949 48.720924,257.742554 
	C46.291557,257.742554 44.362858,257.742554 42.047569,257.742554 
	C42.047569,241.018066 42.047569,224.591278 42.047569,208.164490 
	C44.003563,207.994263 45.959560,207.824036 48.174927,207.631241 
	C54.766823,219.086700 58.070671,232.446747 67.025162,244.075027 
	C69.792213,238.439194 72.136803,233.862061 74.302284,229.201721 
	C76.856964,223.703735 79.493912,218.223724 81.640152,212.563400 
	C83.068542,208.796280 85.264130,207.279663 89.571861,208.570312 
	C89.974350,225.406784 89.941719,241.727036 89.909096,258.047302 
z"/>
<path fill="#204493" opacity="1.000000" stroke="none" 
	d="
M448.129395,223.945618 
	C446.758972,220.602814 444.824341,218.271255 441.306396,219.141937 
	C439.735718,219.530670 437.207855,221.370926 437.338531,222.203262 
	C437.607239,223.914780 439.045227,226.032196 440.594391,226.825180 
	C443.440399,228.281921 446.688080,229.000092 449.816101,229.850372 
	C456.963043,231.793091 461.920258,238.906860 461.045380,246.220673 
	C460.310028,252.368454 456.013641,257.647095 448.296265,258.616150 
	C441.613556,259.455292 434.088837,260.766632 428.704620,255.179520 
	C426.017120,252.390747 424.843140,248.095169 423.280060,244.357574 
	C423.146912,244.039261 425.175293,242.235367 426.329834,242.078125 
	C428.938049,241.722916 431.627808,241.966492 433.643860,243.105377 
	C435.959564,244.946426 438.141144,248.039108 440.625580,248.305344 
	C443.596191,248.623703 447.773529,247.946838 448.703735,242.268814 
	C444.589935,240.624664 440.239838,238.925186 435.921295,237.149109 
	C431.556488,235.354050 426.537933,234.291321 424.946869,228.911316 
	C423.529694,224.119263 422.753967,219.198502 425.781738,214.708786 
	C429.195007,209.647415 433.712738,207.483078 440.217651,207.735626 
	C446.596619,207.983307 452.208710,208.703430 456.436676,213.864182 
	C457.366119,214.998734 458.297516,216.226547 458.838104,217.568497 
	C461.255493,223.569366 459.873352,225.329788 453.359741,224.763733 
	C451.649841,224.615128 449.940033,224.465790 448.129395,223.945618 
z"/>
<path fill="#1D4293" opacity="1.000000" stroke="none" 
	d="
M323.149384,208.019165 
	C329.619019,210.199615 335.395325,212.849136 337.303680,220.532257 
	C340.167725,232.063110 333.647156,241.679672 321.798248,242.615585 
	C318.707733,242.859711 315.612671,243.046783 311.985443,243.296890 
	C311.985443,246.790100 311.753784,250.087616 312.042419,253.338928 
	C312.428131,257.684082 310.824036,259.543335 306.409576,259.004150 
	C304.609558,258.784241 302.762817,258.947357 300.481903,258.434906 
	C300.026489,241.388794 300.026489,224.843994 300.026489,208.019165 
	C308.225006,208.019165 315.687195,208.019165 323.149384,208.019165 
M325.833252,224.776245 
	C322.728394,218.777176 317.580902,219.625381 311.985626,220.506714 
	C311.985626,222.378082 311.953857,224.010895 311.994629,225.641891 
	C312.034821,227.250412 312.148499,228.857086 312.226044,230.387527 
	C321.494598,231.905075 323.585236,231.136597 325.833252,224.776245 
z"/>
<path fill="#244793" opacity="1.000000" stroke="none" 
	d="
M270.212463,211.696228 
	C278.826721,217.254410 284.890259,230.609619 280.308105,242.792862 
	C276.376038,253.247589 266.879639,259.910614 255.753311,259.151062 
	C244.251389,258.365906 237.915741,252.081863 234.048447,241.553986 
	C229.933594,230.352219 237.005081,213.152359 248.047653,209.058990 
	C255.553665,206.276596 263.033722,207.102737 270.212463,211.696228 
M256.453308,251.984940 
	C267.322662,250.178192 274.153168,242.080597 273.076263,231.364029 
	C272.383728,224.472443 268.649994,219.814804 262.944427,216.530685 
	C257.439941,213.362259 252.371277,215.204376 247.904190,218.756851 
	C242.643127,222.940735 241.772751,228.797119 241.961227,235.221695 
	C242.216583,243.926636 246.900421,250.044601 256.453308,251.984940 
z"/>
<path fill="#204493" opacity="1.000000" stroke="none" 
	d="
M182.080109,258.800781 
	C175.626816,260.631714 173.489227,255.617722 170.726227,251.623718 
	C164.981384,243.319412 159.254395,235.002762 153.205200,226.841370 
	C152.890320,226.991562 152.925766,227.063126 153.120514,226.826996 
	C153.035995,226.293976 152.756699,225.997086 152.477417,225.700211 
	C152.329010,226.129150 152.180603,226.558090 151.994659,227.455231 
	C151.953094,235.644699 152.018234,243.367035 151.903122,251.086670 
	C151.868347,253.419357 151.333801,255.744598 151.028168,258.073242 
	C149.262558,258.350922 147.496948,258.628601 145.347702,258.396271 
	C144.989777,241.303894 145.015488,224.721542 145.041183,208.139175 
	C149.317657,207.171066 151.957520,208.921310 154.286377,212.610077 
	C160.073380,221.776215 166.288696,230.671967 172.640320,240.233597 
	C173.411957,241.332397 173.875275,241.873917 175.112885,243.320374 
	C175.112885,230.917068 175.112885,219.701569 175.112885,208.196869 
	C177.676239,208.196869 179.792114,208.196869 181.941162,208.652130 
	C182.009598,225.671860 182.044861,242.236328 182.080109,258.800781 
z"/>
<path fill="#204492" opacity="1.000000" stroke="none" 
	d="
M192.031158,208.153625 
	C198.941635,208.429703 205.968628,208.010208 212.735504,209.143646 
	C223.075775,210.875626 230.922562,221.310684 230.987518,231.938004 
	C231.071854,245.732864 224.727295,255.422745 212.476715,258.076385 
	C206.172714,259.441925 199.413132,258.704254 192.396500,258.414124 
	C191.966110,241.325363 191.998627,224.739487 192.031158,208.153625 
M199.202438,216.456375 
	C199.136414,227.180313 199.046646,237.904251 199.052658,248.628143 
	C199.053101,249.424469 199.741486,250.220398 200.730484,250.691055 
	C206.431808,251.256088 211.731125,251.046082 216.487564,246.827484 
	C223.124420,240.941147 224.699707,234.088318 220.934845,226.059631 
	C216.615112,216.847687 208.935104,215.253845 199.202438,216.456375 
z"/>
<path fill="#1E4393" opacity="1.000000" stroke="none" 
	d="
M129.032547,208.159760 
	C131.059433,208.120438 133.086334,208.081131 135.553375,208.556931 
	C135.993027,220.762604 135.992538,232.453156 135.992065,244.143723 
	C135.872330,251.136459 131.692245,255.460785 125.838150,257.906799 
	C114.417580,262.678589 103.110909,257.421478 99.057907,245.081787 
	C99.075134,232.211960 99.043671,220.188065 99.012207,208.164185 
	C101.048729,208.120148 103.085243,208.076126 105.551857,208.543610 
	C105.987968,218.168854 105.936600,227.283218 106.041077,236.395813 
	C106.066605,238.621979 106.602905,240.842316 106.904358,243.065323 
	C108.122040,248.144302 111.112587,251.553818 116.461868,251.912643 
	C122.379013,252.309570 124.978775,247.551712 128.347595,242.953461 
	C128.802383,230.902206 128.917465,219.530991 129.032547,208.159760 
z"/>
<path fill="#214593" opacity="1.000000" stroke="none" 
	d="
M152.921112,167.038818 
	C156.199707,160.145264 158.920929,153.329361 162.740479,147.197632 
	C166.242889,141.574997 170.930313,136.690521 175.441772,131.047821 
	C176.069107,132.121552 176.934723,132.903564 176.866867,133.593826 
	C176.080719,141.590988 179.420547,149.751877 175.421600,157.707504 
	C174.082184,160.372177 174.735886,163.851761 178.462753,166.161743 
	C178.929413,163.638687 179.316452,161.546066 179.703506,159.453445 
	C180.132370,159.410034 180.561249,159.366623 180.990112,159.323212 
	C182.576782,164.128204 184.163467,168.933212 185.950531,174.345093 
	C173.463699,175.461090 161.392853,176.539886 148.789124,177.666321 
	C150.226883,174.030060 151.534698,170.722397 152.921112,167.038818 
z"/>
<path fill="#1B4192" opacity="1.000000" stroke="none" 
	d="
M465.024323,208.155075 
	C468.371552,208.112030 471.718750,208.068985 475.517914,208.544556 
	C475.947998,225.326401 475.926178,241.589630 475.451416,257.913208 
	C471.760071,257.973541 468.521667,257.973541 465.024323,257.973541 
	C465.024323,240.901291 465.024323,224.528183 465.024323,208.155075 
z"/>
<path fill="#264893" opacity="1.000000" stroke="none" 
	d="
M273.150543,96.814774 
	C272.305206,98.450760 271.558868,99.707001 270.812531,100.963234 
	C270.416260,100.851341 270.019989,100.739449 269.623718,100.627556 
	C269.340851,96.719421 269.057983,92.811295 268.785583,89.047859 
	C263.735016,87.943558 258.696381,86.972031 253.759872,85.625999 
	C252.995468,85.417572 252.698807,83.493736 251.969864,81.887177 
	C253.627899,81.183907 255.057327,80.469765 256.556183,79.959618 
	C265.282135,76.989708 273.993500,73.968651 282.790710,71.224236 
	C284.306885,70.751236 286.211212,71.522331 287.936249,71.718758 
	C288.311890,72.489456 288.687531,73.260162 289.063171,74.030861 
	C285.665649,77.154625 282.268127,80.278389 278.539917,83.706192 
	C278.873444,84.163582 279.721741,85.327019 281.120544,87.245392 
	C274.485413,87.121490 273.512329,91.516563 273.150543,96.814774 
z"/>
<path fill="#2B4C92" opacity="1.000000" stroke="none" 
	d="
M319.567505,105.155380 
	C319.287994,105.739395 318.653168,106.249321 317.791565,106.991150 
	C316.807312,106.666519 316.049866,106.109970 315.292419,105.553421 
	C315.368713,105.999519 315.445038,106.445610 315.521332,106.891708 
	C312.820251,107.215401 309.855957,108.371117 307.493683,107.623825 
	C305.227142,106.906807 303.506348,104.231377 306.225922,101.328598 
	C305.370148,100.797356 304.428772,100.212982 302.974579,99.310272 
	C309.223724,98.622520 314.950378,97.992271 321.500458,97.271400 
	C320.077881,99.394775 318.804352,101.024879 317.903870,102.840050 
	C317.692566,103.265976 318.742493,104.317551 319.567505,105.155380 
z"/>
<path fill="#254791" opacity="1.000000" stroke="none" 
	d="
M503.715820,202.919434 
	C502.982361,201.620636 502.044647,200.152359 502.389709,199.107819 
	C503.973022,194.314697 506.514893,190.606354 512.599915,191.947174 
	C514.114014,192.280823 515.764221,191.997025 518.299438,191.997025 
	C513.475891,196.608643 512.623352,204.581238 503.715820,202.919434 
z"/>
<path fill="#8297BF" opacity="1.000000" stroke="none" 
	d="
M199.399948,108.688721 
	C197.447174,108.169037 195.816879,107.063179 194.182465,107.057091 
	C165.970093,106.951859 137.757233,106.985687 109.544472,106.973381 
	C107.893166,106.972664 106.241920,106.838600 104.316223,106.450836 
	C135.095520,106.089622 166.149261,106.032974 197.203003,106.033669 
	C198.664871,106.033707 201.511047,105.211472 199.399948,108.688721 
z"/>
<path fill="#9FB0CE" opacity="1.000000" stroke="none" 
	d="
M41.624115,208.281738 
	C42.047569,224.591278 42.047569,241.018066 42.047569,257.742554 
	C44.362858,257.742554 46.291557,257.742554 48.720924,257.742554 
	C48.720924,248.300949 48.720924,238.740967 48.720924,229.180984 
	C49.049854,229.090271 49.378784,228.999557 49.707714,228.908844 
	C50.171993,229.767410 50.636272,230.625992 51.051903,231.836227 
	C50.668076,233.807709 50.067772,235.423584 50.043514,237.048050 
	C49.937222,244.166214 49.997726,251.286850 49.997726,258.698425 
	C47.126083,258.698425 44.382847,258.698425 41.200661,258.698425 
	C41.200661,242.089676 41.200661,225.244324 41.624115,208.281738 
z"/>
<path fill="#D8E2EE" opacity="1.000000" stroke="none" 
	d="
M420.764771,207.637726 
	C408.854614,208.078247 396.865479,208.078247 384.056458,208.078247 
	C384.056458,224.451553 384.056458,240.688950 384.048218,257.638214 
	C384.020203,258.521179 384.000488,258.692261 383.980743,258.863342 
	C383.653656,257.912872 383.044830,256.963409 383.041382,256.011749 
	C382.982788,239.900833 382.999451,223.789658 382.999451,207.197189 
	C395.612549,207.197189 408.149170,207.197189 420.764771,207.637726 
z"/>
<path fill="#AABAD1" opacity="1.000000" stroke="none" 
	d="
M103.551041,122.876160 
	C106.686333,122.579994 110.285431,122.050201 113.886436,122.037025 
	C135.507874,121.957870 157.129776,122.008278 178.751465,121.977234 
	C180.550888,121.974655 182.349915,121.690605 184.497711,121.321892 
	C183.688705,121.739655 182.532471,122.922417 181.373306,122.925285 
	C155.587646,122.989151 129.801666,122.922859 103.551041,122.876160 
z"/>
<path fill="#849BC4" opacity="1.000000" stroke="none" 
	d="
M176.551941,348.801697 
	C177.294601,349.056061 177.580536,349.453491 177.866470,349.850891 
	C177.040741,349.895142 176.215012,349.978149 175.389282,349.978027 
	C152.330276,349.974121 129.271286,349.965027 106.212303,349.937347 
	C105.392654,349.936371 104.573242,349.737671 103.421463,349.398682 
	C127.424545,349.092407 151.759888,349.018585 176.551941,348.801697 
z"/>
<path fill="#849BC4" opacity="1.000000" stroke="none" 
	d="
M509.525635,349.109192 
	C508.242340,349.418213 506.488037,349.937256 504.732422,349.941803 
	C483.026001,349.998047 461.319214,350.008942 439.613068,349.911652 
	C438.196808,349.905334 436.784943,348.920776 435.694214,348.196289 
	C437.674164,348.332428 439.329803,348.945282 440.987915,348.951996 
	C463.676392,349.043610 486.365234,349.051575 509.525635,349.109192 
z"/>
<path fill="#ADBDD3" opacity="1.000000" stroke="none" 
	d="
M429.017822,122.356506 
	C451.855286,121.966011 474.885376,121.982193 497.915436,122.015968 
	C499.732300,122.018631 501.549011,122.143562 503.637695,122.525192 
	C479.009888,122.815041 454.110138,122.791359 429.017822,122.356506 
z"/>
<path fill="#D4DFF3" opacity="1.000000" stroke="none" 
	d="
M322.941010,207.622437 
	C315.687195,208.019165 308.225006,208.019165 300.026489,208.019165 
	C300.026489,224.843994 300.026489,241.388794 300.027100,258.389130 
	C299.685333,257.913055 299.047974,256.982544 299.044464,256.049652 
	C298.983521,239.927780 299.000580,223.805649 299.000580,207.225723 
	C306.956085,207.225723 314.844360,207.225723 322.941010,207.622437 
z"/>
<path fill="#97A8CA" opacity="1.000000" stroke="none" 
	d="
M342.142365,208.130661 
	C342.142365,224.533051 342.142365,240.935440 342.142365,257.980988 
	C345.587677,257.980988 348.845795,257.980988 352.561646,257.920105 
	C352.584473,258.241241 352.158112,258.942719 351.713379,258.954590 
	C348.266479,259.046539 344.816071,259.005310 341.016815,259.005310 
	C341.016815,242.073868 341.016815,225.494293 341.330444,208.476379 
	C341.810181,208.068909 341.976257,208.099792 342.142365,208.130661 
z"/>
<path fill="#A3B4CD" opacity="1.000000" stroke="none" 
	d="
M564.827393,258.324341 
	C564.801880,257.895264 565.053406,257.837097 565.991821,257.870300 
	C567.106934,257.935822 567.535278,257.909973 567.963562,257.884094 
	C570.018860,257.930511 572.074219,257.976929 574.947876,257.772278 
	C575.786987,241.365234 575.807678,225.209229 575.828369,209.053223 
	C575.828369,209.053223 575.940918,208.620071 575.955566,208.397461 
	C576.312927,208.957474 576.951660,209.738998 576.954468,210.522842 
	C577.012695,226.492401 576.998169,242.462204 576.998169,258.695251 
	C572.920471,258.695251 569.012451,258.695251 564.827393,258.324341 
z"/>
<path fill="#9AA9CA" opacity="1.000000" stroke="none" 
	d="
M464.609039,208.289444 
	C465.024323,224.528183 465.024323,240.901291 465.024323,257.973541 
	C468.521667,257.973541 471.760071,257.973541 475.477600,258.168793 
	C475.972015,258.534637 475.987335,258.705231 476.002655,258.875824 
	C472.204407,258.875824 468.406189,258.875824 464.193756,258.875824 
	C464.193756,242.069107 464.193756,225.246460 464.609039,208.289444 
z"/>
<path fill="#9BABCA" opacity="1.000000" stroke="none" 
	d="
M596.171143,207.602783 
	C596.405334,207.928619 596.813354,208.715286 596.811157,209.500824 
	C596.760132,227.715500 596.664612,245.930054 596.381958,264.488708 
	C596.175659,245.909576 596.164734,226.986343 596.171143,207.602783 
z"/>
<path fill="#DDEAF2" opacity="1.000000" stroke="none" 
	d="
M17.908306,261.481323 
	C17.558109,261.235779 17.021297,260.525940 17.021776,259.816498 
	C17.032869,243.394623 17.102301,226.972763 17.503450,210.302628 
	C17.887981,227.041946 17.929979,244.029572 17.908306,261.481323 
z"/>
<path fill="#415D99" opacity="1.000000" stroke="none" 
	d="
M144.651642,208.315582 
	C145.015488,224.721542 144.989777,241.303894 144.955521,258.339111 
	C144.641479,258.272522 144.068329,257.752625 144.069275,257.233734 
	C144.099121,240.986435 144.184891,224.739227 144.651642,208.315582 
z"/>
<path fill="#8297BF" opacity="1.000000" stroke="none" 
	d="
M463.539978,105.926620 
	C463.326721,106.235214 462.646423,106.912857 461.967041,106.911919 
	C445.821930,106.889694 429.676971,106.794533 413.235291,106.407013 
	C429.650177,106.060745 446.361786,106.020149 463.539978,105.926620 
z"/>
<path fill="#627CB0" opacity="1.000000" stroke="none" 
	d="
M182.445374,258.602600 
	C182.044861,242.236328 182.009598,225.671860 182.177948,208.590607 
	C182.381546,208.073807 182.864334,207.994965 182.864349,207.994965 
	C182.846451,224.798126 182.828552,241.601288 182.445374,258.602600 
z"/>
<path fill="#7D90B6" opacity="1.000000" stroke="none" 
	d="
M191.620575,208.295959 
	C191.998627,224.739487 191.966110,241.325363 191.925995,258.367493 
	C191.618790,258.317810 191.056992,257.811615 191.057541,257.305969 
	C191.074875,241.016708 191.146500,224.727493 191.620575,208.295959 
z"/>
<path fill="#BECBE1" opacity="1.000000" stroke="none" 
	d="
M533.595947,208.275330 
	C534.012268,224.748001 534.008728,241.348022 534.006470,258.405579 
	C533.672363,258.261353 533.044189,257.659515 533.044373,257.057831 
	C533.048950,240.839447 533.118042,224.621063 533.595947,208.275330 
z"/>
<path fill="#BBC6DC" opacity="1.000000" stroke="none" 
	d="
M476.426208,258.759583 
	C475.987335,258.705231 475.972015,258.534637 475.930511,258.108459 
	C475.926178,241.589630 475.947998,225.326401 475.968353,208.606827 
	C476.310547,208.926865 476.953339,209.703079 476.953766,210.479675 
	C476.962921,226.534210 476.899109,242.588791 476.426208,258.759583 
z"/>
<path fill="#748CBB" opacity="1.000000" stroke="none" 
	d="
M90.151459,258.329712 
	C89.941719,241.727036 89.974350,225.406784 89.984619,208.631912 
	C90.307053,208.969925 90.949585,209.761444 90.952576,210.555344 
	C91.010597,225.981583 91.000595,241.408142 90.967339,256.834534 
	C90.966057,257.427490 90.593422,258.019623 90.151459,258.329712 
z"/>
<path fill="#D2DDEB" opacity="1.000000" stroke="none" 
	d="
M182.747345,207.579346 
	C182.864334,207.994965 182.381546,208.073807 182.144760,208.135345 
	C179.792114,208.196869 177.676239,208.196869 175.112885,208.196869 
	C175.112885,219.701569 175.112885,230.917068 175.112885,243.320374 
	C173.875275,241.873917 173.411957,241.332397 172.897858,240.454483 
	C173.231354,238.654633 173.932709,237.194580 173.948364,235.727203 
	C174.049133,226.281448 173.999893,216.834106 173.999893,207.163742 
	C177.090942,207.163742 179.860641,207.163742 182.747345,207.579346 
z"/>
<path fill="#44609B" opacity="1.000000" stroke="none" 
	d="
M255.433624,106.582115 
	C251.188843,106.204788 247.325272,105.822411 243.461685,105.440025 
	C243.417068,104.998154 243.372437,104.556282 243.327820,104.114410 
	C246.587799,103.422615 249.824036,102.364647 253.115051,102.151108 
	C255.912048,101.969627 256.834045,103.918121 255.433624,106.582115 
z"/>
<path fill="#4C669F" opacity="1.000000" stroke="none" 
	d="
M421.643188,247.636139 
	C415.502411,248.010086 409.186920,247.993073 402.871460,247.987579 
	C394.462250,247.980255 394.047455,247.467239 395.816406,238.970703 
	C396.494293,241.499054 396.896637,243.909119 397.454437,247.250290 
	C405.321259,247.250290 413.394867,247.250290 421.643188,247.636139 
z"/>
<path fill="#9DABCD" opacity="1.000000" stroke="none" 
	d="
M384.446198,258.926025 
	C384.000488,258.692261 384.020203,258.521179 384.084412,258.095551 
	C396.389313,257.891724 408.649750,257.942413 421.364441,257.987396 
	C420.382568,258.320801 418.948578,258.943359 417.510101,258.953888 
	C406.644440,259.033112 395.777924,258.992157 384.446198,258.926025 
z"/>
<path fill="#D7E0F7" opacity="1.000000" stroke="none" 
	d="
M299.209869,168.437988 
	C311.524017,168.072556 324.018585,168.104004 336.744019,168.497086 
	C324.446655,168.850784 311.918488,168.842819 299.209869,168.437988 
z"/>
<path fill="#91A4CC" opacity="1.000000" stroke="none" 
	d="
M98.600845,208.303864 
	C99.043671,220.188065 99.075134,232.211960 99.070602,244.718018 
	C98.675293,244.544876 98.002518,243.889175 98.003273,243.234268 
	C98.016594,231.637314 98.111893,220.040436 98.600845,208.303864 
z"/>
<path fill="#BBC6DC" opacity="1.000000" stroke="none" 
	d="
M136.395554,243.946854 
	C135.992538,232.453156 135.993027,220.762604 135.984314,208.616440 
	C136.313568,208.773712 136.947006,209.386673 136.946793,209.999420 
	C136.942780,221.249619 136.862869,232.499802 136.395554,243.946854 
z"/>
<path fill="#849BC4" opacity="1.000000" stroke="none" 
	d="
M128.617554,208.293518 
	C128.917465,219.530991 128.802383,230.902206 128.435760,242.596451 
	C128.190338,231.422058 128.196457,219.924667 128.617554,208.293518 
z"/>
<path fill="#ADBDD3" opacity="1.000000" stroke="none" 
	d="
M106.936493,242.588074 
	C106.602905,240.842316 106.066605,238.621979 106.041077,236.395813 
	C105.936600,227.283218 105.987968,218.168854 105.985626,208.597565 
	C106.328629,209.414413 106.953308,210.686890 106.962021,211.963562 
	C107.030624,222.012207 106.981506,232.061646 106.936493,242.588074 
z"/>
<path fill="#F0F3F7" opacity="1.000000" stroke="none" 
	d="
M151.190033,258.451294 
	C151.333801,255.744598 151.868347,253.419357 151.903122,251.086670 
	C152.018234,243.367035 151.953094,235.644699 152.218719,227.464890 
	C152.480286,227.006378 152.925766,227.063126 152.925766,227.063126 
	C152.925766,227.063126 152.890320,226.991562 152.851593,227.000397 
	C152.875290,236.921127 152.971100,246.833145 152.928635,256.744598 
	C152.925644,257.441742 151.901291,258.134521 151.190033,258.451294 
z"/>
<path fill="#C4CFE4" opacity="1.000000" stroke="none" 
	d="
M81.440506,232.207870 
	C81.383270,231.183334 81.715790,230.351395 82.048309,229.519440 
	C82.374557,229.552429 82.700813,229.585419 83.027061,229.618408 
	C83.027061,239.061234 83.027061,248.504044 83.025375,258.403931 
	C82.681992,257.610535 82.067574,256.365326 82.043312,255.108704 
	C81.897202,247.540741 81.886383,239.970154 81.440506,232.207870 
z"/>
<path fill="#7A90BE" opacity="1.000000" stroke="none" 
	d="
M545.142090,258.323395 
	C544.947266,249.714249 544.954773,241.392731 545.081848,233.073059 
	C545.095764,232.160324 544.197815,229.191574 547.049194,231.901367 
	C546.687378,233.725464 546.095825,235.138367 546.038147,236.572739 
	C545.742859,243.915970 545.585266,251.264740 545.142090,258.323395 
z"/>
<path fill="#9DABCD" opacity="1.000000" stroke="none" 
	d="
M564.610291,208.289047 
	C565.014465,216.634048 565.034180,225.102966 564.925476,233.570251 
	C564.915100,234.372910 566.094360,237.122818 563.052734,235.116333 
	C563.310547,233.360977 563.919617,231.946655 563.950867,230.519699 
	C564.112183,223.152420 564.125488,215.781906 564.610291,208.289047 
z"/>
<path fill="#D7E1EE" opacity="1.000000" stroke="none" 
	d="
M342.599670,208.087967 
	C341.976257,208.099792 341.810181,208.068909 341.392273,208.010254 
	C343.242554,207.656052 345.342224,207.072144 347.447266,207.051895 
	C353.554382,206.993179 359.663666,207.160660 365.992554,207.634354 
	C358.494354,208.034637 350.775665,208.039948 342.599670,208.087967 
z"/>
<path fill="#2B4C92" opacity="1.000000" stroke="none" 
	d="
M331.981171,107.637947 
	C330.221436,107.788719 328.299316,107.621040 326.191223,107.186378 
	C327.943085,107.052757 329.880951,107.186127 331.981171,107.637947 
z"/>
<path fill="#849BC4" opacity="1.000000" stroke="none" 
	d="
M176.020660,346.357300 
	C176.385117,346.562439 176.752914,347.110748 177.082886,348.010620 
	C176.704697,347.808258 176.364349,347.254395 176.020660,346.357300 
z"/>
<path fill="#2B4C92" opacity="1.000000" stroke="none" 
	d="
M324.970947,105.698387 
	C324.568115,105.862663 324.032684,105.750938 323.304321,105.442619 
	C323.687042,105.304810 324.262695,105.363602 324.970947,105.698387 
z"/>
<path fill="#2B4C92" opacity="1.000000" stroke="none" 
	d="
M317.671814,107.454277 
	C317.889557,107.424591 318.082581,107.620430 318.107666,107.921417 
	C317.939758,108.026558 317.647095,107.679810 317.671814,107.454277 
z"/>
<path fill="#000000" opacity="1.000000" stroke="none" 
	d="
M453.134094,15.140953 
	C463.170502,11.086525 473.229218,9.533519 483.954498,12.967588 
	C497.671997,17.359747 508.739349,29.962545 512.025757,43.808846 
	C515.164490,57.032909 510.844543,68.380577 502.965729,78.128418 
	C496.581512,86.027061 487.337738,90.208679 477.014862,91.998528 
	C460.863525,94.798943 449.164246,87.471313 439.018341,76.280914 
	C437.830200,74.970459 437.715454,72.686821 437.106598,70.780838 
	C437.466705,70.470360 437.823334,70.233398 438.514709,70.015717 
	C443.909241,70.449844 445.183289,68.942734 442.972687,64.729050 
	C436.181580,51.784252 441.276642,33.608765 453.834625,25.704000 
	C454.609283,25.216381 455.074188,24.236616 455.645111,23.532820 
	C454.839722,22.276876 454.141632,21.188267 452.760284,19.034138 
	C448.705780,22.724405 444.847778,26.235842 440.970062,29.765242 
	C440.332123,28.841656 439.707458,27.937286 439.082794,27.032921 
	C439.082794,27.032923 439.024475,26.994755 439.340057,26.894800 
	C440.469452,25.549967 441.283264,24.305090 442.097076,23.060211 
	C442.097076,23.060207 442.057739,23.005865 442.268677,22.921436 
	C442.675018,22.567354 442.870422,22.297705 443.065826,22.028053 
	C443.065826,22.028051 443.005707,22.057661 443.389709,22.086685 
	C446.201447,20.101084 448.629150,18.086458 451.056885,16.071842 
	C451.056885,16.071852 451.070343,16.067347 451.385712,16.082188 
	C452.178741,15.778335 452.656403,15.459641 453.134094,15.140953 
M482.521820,43.996929 
	C485.549744,39.386246 488.577667,34.775566 491.601318,30.171402 
	C489.489899,27.325684 488.136017,27.244081 485.843597,30.490503 
	C481.892792,36.085396 477.982208,42.503902 470.587250,43.759438 
	C465.830017,44.567142 464.694489,47.250912 464.233215,50.970581 
	C463.710693,55.183956 467.417969,59.761673 471.238434,59.976074 
	C475.084290,60.191906 480.455261,55.618061 479.779510,51.979198 
	C479.189148,48.800083 480.288239,46.707848 482.521820,43.996929 
M482.492218,21.328054 
	C486.083282,22.607481 485.875275,19.899837 486.701385,17.740797 
	C477.744720,13.984977 468.951569,13.817798 460.139984,16.018158 
	C455.574921,17.158110 455.202972,18.954794 457.961609,22.974024 
	C465.726288,19.366838 473.704926,18.410139 482.492218,21.328054 
M490.565765,26.044153 
	C495.323944,30.955210 496.175018,31.012894 499.000366,26.362568 
	C496.329803,23.938129 493.619202,21.477339 490.940735,19.045723 
	C486.486176,22.138535 486.377441,23.101450 490.565765,26.044153 
M503.705322,37.082043 
	C503.672516,35.154362 503.919617,33.149837 503.425232,31.348867 
	C503.288483,30.850763 500.658325,30.424286 499.698425,30.941492 
	C498.782379,31.435051 497.780151,33.801540 498.164551,34.295792 
	C499.330536,35.795086 499.715942,39.125698 503.705322,37.082043 
z"/>
<path fill="#2B4D94" opacity="1.000000" stroke="none" 
	d="
M438.734985,27.073730 
	C439.707458,27.937286 440.332123,28.841656 440.970062,29.765242 
	C444.847778,26.235842 448.705780,22.724405 452.760284,19.034138 
	C454.141632,21.188267 454.839722,22.276876 455.645111,23.532820 
	C455.074188,24.236616 454.609283,25.216381 453.834625,25.704000 
	C441.276642,33.608765 436.181580,51.784252 442.972687,64.729050 
	C445.183289,68.942734 443.909241,70.449844 438.442749,69.773331 
	C438.009705,69.344780 437.983337,69.177895 437.963318,68.663635 
	C437.647858,67.242851 437.326050,66.169449 437.047058,64.817123 
	C436.077545,63.726456 435.065247,62.914722 434.052948,62.102982 
	C434.052948,62.102978 433.907562,61.974564 433.920532,61.478973 
	C435.022369,54.346722 436.057037,47.712997 432.882324,40.664562 
	C432.149384,42.841427 431.611755,44.438156 431.074127,46.034885 
	C430.748901,44.836212 429.790649,43.326683 430.201721,42.489597 
	C432.759583,37.280796 435.624268,32.222649 438.734985,27.073730 
z"/>
<path fill="#000000" opacity="1.000000" stroke="none" 
	d="
M431.043518,46.489487 
	C431.611755,44.438156 432.149384,42.841427 432.882324,40.664562 
	C436.057037,47.712997 435.022369,54.346722 433.859192,61.403828 
	C429.829956,57.428837 431.278076,52.026886 431.043518,46.489487 
z"/>
<path fill="#96A8CF" opacity="1.000000" stroke="none" 
	d="
M195.019012,365.848450 
	C179.331299,366.084656 163.659866,366.045441 147.297806,366.047363 
	C146.607193,366.088501 146.152237,366.069366 146.152237,366.069366 
	C146.152237,366.069366 146.055634,365.629608 146.504501,365.345825 
	C162.967728,365.048889 178.982071,365.035736 194.996429,365.022583 
	C195.009384,365.206085 195.022324,365.389557 195.019012,365.848450 
z"/>
<path fill="#183A84" opacity="1.000000" stroke="none" 
	d="
M194.699951,364.728271 
	C178.982071,365.035736 162.967728,365.048889 146.489227,365.121216 
	C146.552368,364.818634 147.080780,364.139435 147.606735,364.141327 
	C163.205811,364.197418 178.804626,364.321045 194.699951,364.728271 
z"/>
<path fill="#183A84" opacity="1.000000" stroke="none" 
	d="
M418.981140,364.920959 
	C419.559662,364.633820 420.139160,364.094086 420.716522,364.096405 
	C435.939209,364.157837 451.161713,364.275269 466.230408,364.675049 
	C450.378143,364.951599 434.679626,364.936279 418.981140,364.920959 
z"/>
<path fill="#91A4CC" opacity="1.000000" stroke="none" 
	d="
M418.902832,365.209717 
	C434.679626,364.936279 450.378143,364.951599 466.545959,364.946991 
	C467.061096,365.118378 467.106873,365.309662 467.062805,365.782043 
	C451.301880,366.049530 435.630859,366.035980 419.493744,366.041870 
	C418.959991,365.873749 418.892273,365.686127 418.902832,365.209717 
z"/>
<path fill="#CFDAEA" opacity="1.000000" stroke="none" 
	d="
M146.071320,366.527130 
	C146.152237,366.069366 146.607193,366.088501 146.833008,366.060822 
	C147.058838,373.808777 147.058838,381.584412 147.058838,390.330719 
	C139.021027,389.941101 131.175980,389.560822 123.697540,388.994629 
	C131.153656,388.808716 138.243149,388.808716 145.990417,388.808716 
	C145.990417,381.439331 145.990417,374.212128 146.071320,366.527130 
z"/>
<path fill="#8297BF" opacity="1.000000" stroke="none" 
	d="
M479.609650,105.439651 
	C484.634186,105.448708 489.455750,105.795746 494.283508,105.976067 
	C498.706512,106.141258 503.136261,106.126419 507.774353,106.565857 
	C499.694672,106.953926 491.403046,107.019882 483.113312,106.923019 
	C481.874084,106.908539 480.643799,106.130035 479.609650,105.439651 
z"/>
<path fill="#91A4CC" opacity="1.000000" stroke="none" 
	d="
M467.930237,389.358765 
	C467.627411,385.334656 467.245209,380.858459 467.043976,376.374084 
	C466.902679,373.225647 467.007843,370.066162 466.970093,366.440979 
	C467.270721,370.138367 467.712036,374.301361 467.904388,378.475830 
	C468.064270,381.944611 467.931396,385.426849 467.930237,389.358765 
z"/>
<path fill="#2B4D94" opacity="1.000000" stroke="none" 
	d="
M450.684509,16.050461 
	C448.629150,18.086458 446.201447,20.101084 443.416870,22.106312 
	C445.477386,20.074306 447.894745,18.051699 450.684509,16.050461 
z"/>
<path fill="#DDEAF2" opacity="1.000000" stroke="none" 
	d="
M433.985168,62.348167 
	C435.065247,62.914722 436.077545,63.726456 436.724915,64.859146 
	C435.900452,65.825905 435.440948,66.471710 434.981415,67.117516 
	C434.626740,65.609459 434.272064,64.101402 433.985168,62.348167 
z"/>
<path fill="#2B4D94" opacity="1.000000" stroke="none" 
	d="
M441.730621,23.072441 
	C441.283264,24.305090 440.469452,25.549967 439.347595,26.928814 
	C439.814423,25.736746 440.589294,24.410707 441.730621,23.072441 
z"/>
<path fill="#000000" opacity="1.000000" stroke="none" 
	d="
M435.014893,67.409294 
	C435.440948,66.471710 435.900452,65.825905 436.682098,65.138077 
	C437.326050,66.169449 437.647858,67.242851 437.670044,68.597977 
	C436.578613,68.877319 435.786774,68.874931 434.994934,68.872551 
	C435.012756,68.482056 435.030548,68.091568 435.014893,67.409294 
z"/>
<path fill="#F0F3F7" opacity="1.000000" stroke="none" 
	d="
M434.950806,69.163445 
	C435.786774,68.874931 436.578613,68.877319 437.663727,68.945358 
	C437.983337,69.177895 438.009705,69.344780 438.108002,69.754051 
	C437.823334,70.233398 437.466705,70.470360 436.848328,70.428253 
	C436.026581,69.917564 435.466644,69.685951 434.950806,69.163445 
z"/>
<path fill="#2B4D94" opacity="1.000000" stroke="none" 
	d="
M452.948212,14.906130 
	C452.656403,15.459641 452.178741,15.778335 451.389343,16.092731 
	C451.639160,15.616060 452.200745,15.143685 452.948212,14.906130 
z"/>
<path fill="#D7E1EE" opacity="1.000000" stroke="none" 
	d="
M314.182800,385.032654 
	C314.939087,385.131104 315.344910,385.261597 315.750763,385.392090 
	C315.728058,385.551331 315.705322,385.710571 315.682587,385.869812 
	C314.954956,385.808228 314.226959,385.750092 313.501099,385.672058 
	C313.472839,385.669037 313.414276,385.437988 313.458252,385.378479 
	C313.552185,385.251160 313.704193,385.166656 314.182800,385.032654 
z"/>
<path fill="#91A4CC" opacity="1.000000" stroke="none" 
	d="
M418.755981,365.961273 
	C418.594910,366.331696 418.125427,366.644775 417.343262,366.960083 
	C417.502899,366.609558 417.975220,366.256744 418.755981,365.961273 
z"/>
<path fill="#2B4D94" opacity="1.000000" stroke="none" 
	d="
M442.840729,22.143253 
	C442.870422,22.297705 442.675018,22.567354 442.253784,22.951477 
	C442.223816,22.796785 442.419708,22.527620 442.840729,22.143253 
z"/>
<path fill="#000000" opacity="1.000000" stroke="none" 
	d="
M506.931396,247.032043 
	C502.229004,248.320312 496.320801,245.569366 494.249176,241.335724 
	C489.136230,230.886688 494.626862,220.918472 506.048370,219.914368 
	C511.345886,219.448639 517.459045,225.347885 517.956116,231.405441 
	C518.583984,239.056717 515.356995,243.789383 506.931396,247.032043 
z"/>
<path fill="#183A84" opacity="1.000000" stroke="none" 
	d="
M575.574829,209.373749 
	C575.807678,225.209229 575.786987,241.365234 575.385132,257.714966 
	C575.109863,241.837234 575.215576,225.765762 575.574829,209.373749 
z"/>
<path fill="#183A84" opacity="1.000000" stroke="none" 
	d="
M567.829102,257.688141 
	C567.535278,257.909973 567.106934,257.935822 566.378052,257.842041 
	C566.616455,257.645630 567.155518,257.568909 567.829102,257.688141 
z"/>
<path fill="#000000" opacity="1.000000" stroke="none" 
	d="
M360.720703,219.994202 
	C365.143066,219.726578 367.786499,221.654221 367.891693,225.509125 
	C368.015076,230.029800 364.282013,229.918762 361.068817,229.863098 
	C358.822845,229.824203 356.580505,229.578171 354.193909,229.414902 
	C354.193909,226.465714 354.193909,223.530670 354.193909,219.993759 
	C356.387115,219.993759 358.330902,219.993759 360.720703,219.994202 
z"/>
<path fill="#000000" opacity="1.000000" stroke="none" 
	d="
M325.875641,225.155609 
	C323.585236,231.136597 321.494598,231.905075 312.226044,230.387527 
	C312.148499,228.857086 312.034821,227.250412 311.994629,225.641891 
	C311.953857,224.010895 311.985626,222.378082 311.985626,220.506714 
	C317.580902,219.625381 322.728394,218.777176 325.875641,225.155609 
z"/>
<path fill="#000000" opacity="1.000000" stroke="none" 
	d="
M256.046844,251.988968 
	C246.900421,250.044601 242.216583,243.926636 241.961227,235.221695 
	C241.772751,228.797119 242.643127,222.940735 247.904190,218.756851 
	C252.371277,215.204376 257.439941,213.362259 262.944427,216.530685 
	C268.649994,219.814804 272.383728,224.472443 273.076263,231.364029 
	C274.153168,242.080597 267.322662,250.178192 256.046844,251.988968 
z"/>
<path fill="#000000" opacity="1.000000" stroke="none" 
	d="
M153.120514,226.826996 
	C152.925766,227.063126 152.480286,227.006378 152.256241,226.996704 
	C152.180603,226.558090 152.329010,226.129150 152.477417,225.700211 
	C152.756699,225.997086 153.035995,226.293976 153.120514,226.826996 
z"/>
<path fill="#000000" opacity="1.000000" stroke="none" 
	d="
M199.975037,216.076996 
	C208.935104,215.253845 216.615112,216.847687 220.934845,226.059631 
	C224.699707,234.088318 223.124420,240.941147 216.487564,246.827484 
	C211.731125,251.046082 206.431808,251.256088 200.369827,250.386200 
	C199.997787,238.746567 199.986420,227.411774 199.975037,216.076996 
z"/>
<path fill="#D7E1EE" opacity="1.000000" stroke="none" 
	d="
M199.588745,216.266693 
	C199.986420,227.411774 199.997787,238.746567 200.059601,250.548920 
	C199.741486,250.220398 199.053101,249.424469 199.052658,248.628143 
	C199.046646,237.904251 199.136414,227.180313 199.588745,216.266693 
z"/>
<path fill="#264894" opacity="1.000000" stroke="none" 
	d="
M482.255920,44.252350 
	C480.288239,46.707848 479.189148,48.800083 479.779510,51.979198 
	C480.455261,55.618061 475.084290,60.191906 471.238434,59.976074 
	C467.417969,59.761673 463.710693,55.183956 464.233215,50.970581 
	C464.694489,47.250912 465.830017,44.567142 470.587250,43.759438 
	C477.982208,42.503902 481.892792,36.085396 485.843597,30.490503 
	C488.136017,27.244081 489.489899,27.325684 491.601318,30.171402 
	C488.577667,34.775566 485.549744,39.386246 482.255920,44.252350 
z"/>
<path fill="#254791" opacity="1.000000" stroke="none" 
	d="
M482.191833,21.491837 
	C473.704926,18.410139 465.726288,19.366838 457.961609,22.974024 
	C455.202972,18.954794 455.574921,17.158110 460.139984,16.018158 
	C468.951569,13.817798 477.744720,13.984977 486.701385,17.740797 
	C485.875275,19.899837 486.083282,22.607481 482.191833,21.491837 
z"/>
<path fill="#2F4E95" opacity="1.000000" stroke="none" 
	d="
M490.307434,25.812704 
	C486.377441,23.101450 486.486176,22.138535 490.940735,19.045723 
	C493.619202,21.477339 496.329803,23.938129 499.000366,26.362568 
	C496.175018,31.012894 495.323944,30.955210 490.307434,25.812704 
z"/>
<path fill="#355396" opacity="1.000000" stroke="none" 
	d="
M503.363708,37.277878 
	C499.715942,39.125698 499.330536,35.795086 498.164551,34.295792 
	C497.780151,33.801540 498.782379,31.435051 499.698425,30.941492 
	C500.658325,30.424286 503.288483,30.850763 503.425232,31.348867 
	C503.919617,33.149837 503.672516,35.154362 503.363708,37.277878 
z"/>
</svg>